<?xml version="1.0" encoding="UTF-8"?>
<svg width="36px" height="36px" viewBox="0 0 36 36" version="1.1" xmlns="http://www.w3.org/2000/svg" xmlns:xlink="http://www.w3.org/1999/xlink">
    <!-- Generator: Sketch 41 (35326) - http://www.bohemiancoding.com/sketch -->
    <title>Judge_Court icon</title>
    <desc>Created with Sketch.</desc>
    <defs></defs>
    <g id="Symbols" stroke="none" stroke-width="1" fill="none" fill-rule="evenodd">
        <g id="Judge_Court-icon" fill="#4A4A4A">
            <g id="Page-1" transform="translate(2.000000, 12.500000)">
                <g id="Group-2">
                    <path d="M11.0922327,1.18123855 L17.9180302,5.06379717 C18.1063653,5.16950634 18.3483323,5.10558917 18.4555961,4.91998353 L18.6518305,4.58400864 C18.7607572,4.39799327 18.6975631,4.16117195 18.5092279,4.0542336 L11.6834304,0.169626348 C11.4946795,0.0622782725 11.2527126,0.126605172 11.1458646,0.312210814 L10.9492144,0.648185705 C10.8402877,0.835430248 10.9051448,1.07389048 11.0922327,1.18123855 Z" id="Fill-1"></path>
                    <path d="M5.18399737,11.2707284 L12.0081319,15.153287 C12.196467,15.2589962 12.438434,15.1967179 12.5456977,15.0111123 L12.7419321,14.6747277 C12.8508588,14.4907609 12.7876647,14.2506618 12.5976666,14.1437235 L5.77353208,10.262394 C5.58519694,10.1550459 5.34322995,10.2189631 5.23596623,10.4049785 L5.03931607,10.7409534 C4.92872635,10.9232812 4.99399923,11.1633803 5.18399737,11.2707284 Z" id="Fill-2"></path>
                    <path d="M29.2489039,16.01453 L15.5889939,9.0381343 L17.4257812,5.90414412 C17.5347079,5.72017739 17.4698508,5.48007826 17.2827629,5.37273018 L11.1408756,1.87736214 C10.9525404,1.77165296 10.7105734,1.83557014 10.6016467,2.0199466 L6.26702834,9.41876927 C6.15976462,9.60437491 6.2233745,9.84283514 6.41170964,9.95018321 L12.553597,13.4439124 C12.7419321,13.5512604 12.9838991,13.4873433 13.0911628,13.3017376 L14.9279501,10.1677474 L27.8877356,18.336854 C28.0698345,18.4519869 28.3084755,18.3946253 28.4157392,18.2086099 L29.4014845,16.5266868 C29.5087482,16.344359 29.4401493,16.1136836 29.2489039,16.01453 Z" id="Fill-3"></path>
                    <path d="M31.4037406,16.9970517 L30.7202462,16.6098611 C30.5331583,16.502513 30.2895283,16.5668399 30.1826803,16.7524456 L28.9986219,18.7703436 C28.8913582,18.95472 28.9562153,19.1948191 29.1433032,19.3001186 L29.8251346,19.6877189 C30.0134697,19.7946572 30.2554367,19.7307401 30.3643635,19.5451344 L31.5467589,17.5268267 C31.6556856,17.3412211 31.5904127,17.1027609 31.4037406,16.9970517 Z" id="Fill-4"></path>
                    <path d="M16.6574736,19.3914874 L15.8359499,19.3914874 C15.9382247,19.2763545 16.0080708,19.1292631 16.0080708,18.9641437 L16.0080708,18.3257914 C16.0080708,17.9734275 15.7157979,17.6853905 15.3582522,17.6853905 L2.36312784,17.6853905 C2.00391911,17.6853905 1.71330926,17.9750664 1.71330926,18.3257914 L1.71330926,18.9641437 C1.71330926,19.1292631 1.7831554,19.2763545 1.88709312,19.3914874 L1.06390643,19.3914874 C0.70303469,19.3914874 0.414087848,19.6811633 0.414087848,20.0318883 L0.414087848,22.5926725 C0.414087848,22.9446267 0.704697694,23.2326637 1.06390643,23.2326637 L16.6574736,23.2326637 C17.0166824,23.2326637 17.3072922,22.9429878 17.3072922,22.5926725 L17.3072922,20.0286105 C17.3072922,19.6795244 17.0166824,19.3914874 16.6574736,19.3914874 Z M15.7320122,22.3509345 L2.04632569,22.3509345 C1.67131842,22.3509345 1.36241554,22.0469182 1.36241554,21.6769361 L1.36241554,21.0017085 C1.36241554,20.6317264 1.67131842,20.3260712 2.04632569,20.3277101 L15.7320122,20.3277101 C16.1103455,20.3277101 16.4171696,20.6317264 16.4155066,21.0000696 L16.4171696,21.6769361 C16.4171696,22.0481474 16.1103455,22.3509345 15.7320122,22.3509345 Z" id="Fill-5"></path>
                </g>
            </g>
        </g>
    </g>
</svg>