<?xml version="1.0" encoding="UTF-8"?>
<svg width="36px" height="36px" viewBox="0 0 36 36" version="1.1" xmlns="http://www.w3.org/2000/svg" xmlns:xlink="http://www.w3.org/1999/xlink">
    <!-- Generator: Sketch 41 (35326) - http://www.bohemiancoding.com/sketch -->
    <title>Lawyer_Solicitor icon</title>
    <desc>Created with Sketch.</desc>
    <defs></defs>
    <g id="Symbols" stroke="none" stroke-width="1" fill="none" fill-rule="evenodd">
        <g id="Lawyer_Solicitor-icon" fill="#4A4A4A">
            <g id="Mediator-Copy" transform="translate(8.000000, 9.500000)">
                <path d="M3.97585912,6.73777821 C3.97585912,10.0945144 6.69740035,12.8146096 10.0526905,12.8146096 C13.4079806,12.8146096 16.1295218,10.0945144 16.1295218,6.73777821 C16.1295218,3.38248808 13.4079806,0.661308374 10.0526905,0.661308374 C6.69740035,0.661308374 3.97585912,3.38248808 3.97585912,6.73777821 Z" id="Fill-1"></path>
                <path d="M8.85930478,25.3533533 L8.80579945,25.3533533 L8.80579945,23.7265021 L6.53616132,23.7265021 L8.60081621,17.9490114 C5.6254862,17.7541507 3.39995381,16.9718161 3.39995381,16.0354729 C3.39995381,15.9931747 3.39850772,15.9508766 3.40826883,15.9100246 C1.8125086,17.1019642 0.780361924,19.0180333 0.780361924,21.1730688 L0.780361924,26.546739 C0.833867251,26.5380624 0.855197077,26.546739 0.890264758,26.546739 L19.325019,26.546739 L19.325019,21.1745149 C19.325019,19.0534625 18.2885341,17.1637845 16.7054272,15.9678682 C16.7083193,15.9902826 16.7068732,16.0145046 16.7068732,16.036919 C16.7068732,16.9718161 14.4813409,17.7541507 11.5045648,17.9504575 L13.5692196,23.7265021 L11.2460762,23.7265021 L11.2460762,25.3533533 L8.85930478,25.3533533" id="Fill-2"></path>
            </g>
        </g>
    </g>
</svg>