<?xml version="1.0" encoding="UTF-8"?>
<svg width="36px" height="36px" viewBox="0 0 36 36" version="1.1" xmlns="http://www.w3.org/2000/svg" xmlns:xlink="http://www.w3.org/1999/xlink">
    <!-- Generator: Sketch 41 (35326) - http://www.bohemiancoding.com/sketch -->
    <title>Mediator icon</title>
    <desc>Created with Sketch.</desc>
    <defs></defs>
    <g id="Symbols" stroke="none" stroke-width="1" fill="none" fill-rule="evenodd">
        <g id="Mediator-icon" fill="#4A4A4A">
            <g id="Group-2" transform="translate(5.000000, 9.000000)">
                <path d="M7.43493641,19.2433128 C7.43493641,20.46367 6.45184632,21.452184 5.23818523,21.452184 C4.02452414,21.452184 3.04143405,20.46367 3.04143405,19.2433128 C3.04143405,18.0229557 4.02452414,17.0344416 5.23818523,17.0344416 C6.45184632,17.0344416 7.43493641,18.0229557 7.43493641,19.2433128" id="Fill-1"></path>
                <path d="M7.43493641,22.5566196 L3.04143405,22.5566196 C1.82917888,22.5566196 0.844682875,23.5465473 0.844682875,24.7654908 L0.844682875,26.974362 L9.63168759,26.974362 L9.63168759,24.7654908 C9.63168759,23.5465473 8.64719158,22.5566196 7.43493641,22.5566196 Z" id="Fill-2"></path>
                <path d="M14.9383792,2.67677894 C14.9383792,3.8971361 13.9552891,4.88565013 12.741628,4.88565013 C11.5279669,4.88565013 10.5448768,3.8971361 10.5448768,2.67677894 C10.5448768,1.45642179 11.5279669,0.467907757 12.741628,0.467907757 C13.9552891,0.467907757 14.9383792,1.45642179 14.9383792,2.67677894" id="Fill-3"></path>
                <path d="M22.4418219,19.2433128 C22.4418219,20.46367 21.4587318,21.452184 20.2450707,21.452184 C19.0314096,21.452184 18.0483195,20.46367 18.0483195,19.2433128 C18.0483195,18.0229557 19.0314096,17.0344416 20.2450707,17.0344416 C21.4587318,17.0344416 22.4418219,18.0229557 22.4418219,19.2433128" id="Fill-4"></path>
                <path d="M22.4418219,22.5566196 L18.0483195,22.5566196 C16.8360644,22.5566196 15.8515684,23.5465473 15.8515684,24.7654908 L15.8515684,26.974362 L24.6385731,26.974362 L24.6385731,24.7654908 C24.6385731,23.5465473 23.6540771,22.5566196 22.4418219,22.5566196 Z" id="Fill-5"></path>
                <path d="M20.431663,14.8255705 C20.6608281,14.8255705 20.8917506,14.7538263 21.0892825,14.6046833 C21.5753796,14.2388943 21.6741455,13.5472525 21.3089576,13.0584735 L16.3660917,6.43185996 C16.1590699,6.15301206 15.8321933,5.99008572 15.4873912,5.99008572 L9.99586475,5.99008572 C9.64965676,5.99008572 9.32418611,6.15301206 9.11716427,6.43185996 L4.17429838,13.0584735 C3.80911047,13.5472525 3.9078764,14.2388943 4.3939735,14.6046833 C4.8800706,14.9718861 5.56791733,14.8725752 5.93169932,14.3837962 L9.44650121,9.67059525 L9.44650121,13.7211349 L16.0367547,13.7211349 L16.0367547,9.67059525 L19.5515566,14.3837962 C19.767014,14.6736001 20.0967024,14.8255705 20.431663,14.8255705 Z" id="Fill-6"></path>
                <path d="M12.741628,15.9300061 C12.1346217,15.9300061 11.6432524,16.4240864 11.6432524,17.0344416 L11.6432524,26.974362 L13.8400036,26.974362 L13.8400036,17.0344416 C13.8400036,16.4240864 13.3486343,15.9300061 12.741628,15.9300061 Z" id="Fill-7"></path>
            </g>
        </g>
    </g>
</svg>