<?xml version="1.0" encoding="UTF-8"?>
<svg width="36px" height="36px" viewBox="0 0 36 36" version="1.1" xmlns="http://www.w3.org/2000/svg" xmlns:xlink="http://www.w3.org/1999/xlink">
    <!-- Generator: Sketch 41 (35326) - http://www.bohemiancoding.com/sketch -->
    <title>Parent icon</title>
    <desc>Created with Sketch.</desc>
    <defs></defs>
    <g id="Symbols" stroke="none" stroke-width="1" fill="none" fill-rule="evenodd">
        <g id="Parent-icon" fill="#4A4A4A">
            <g id="Group-2" transform="translate(4.000000, 9.275061)">
                <path d="M19.1204606,6.28319065 C19.1204606,9.18660001 16.766716,11.5406795 13.8633067,11.5406795 C10.9585575,11.5406795 8.604478,9.18660001 8.604478,6.28319065 C8.604478,3.37844147 10.9585575,1.02469694 13.8633067,1.02469694 C16.766716,1.02469694 19.1204606,3.37844147 19.1204606,6.28319065" id="Fill-1"></path>
                <path d="M19.834087,13.8685302 L8.14977355,13.8685302 C4.37380058,13.8685302 1.30157277,16.8218482 1.30157277,20.4511099 L1.30157277,26.8652061 L5.39173563,26.8652061 L5.39173563,21.6040327 L6.56006648,21.6040327 L6.56006648,26.8652061 L21.1662119,26.8652061 L21.1662119,21.6040327 L22.3345428,21.6040327 L22.3345428,26.8652061 L26.4233658,26.8652061 L26.4233658,20.4511099 C26.4233658,16.7602161 23.5290003,13.8685302 19.834087,13.8685302 Z" id="Fill-2"></path>
            </g>
        </g>
    </g>
</svg>